<svg xmlns="http://www.w3.org/2000/svg" width="200" height="124" viewBox="0 0 200 124"><defs><style>.a{opacity:0.15;}.b{fill:#d22827;}.c{fill:#9d1c20;}.d{fill:#164578;}.e{fill:#fff;}.f{fill:#0f3254;}.g{opacity:0.1;}.h{fill:#828baa;}.i{opacity:0.5;}.j{fill:#e44e25;}</style></defs><title>logo-traffic-company</title><g class="a"><path d="M187.8,73.7,200,59s-24.1-7.8-44.5-11.1V2.5H45.3V47.7C24.8,51,0,59,0,59L12.2,73.7,0,99.6S28.8,88.5,49.8,87.8c3.5,5.8,9.7,12.4,20.6,18C97,119.4,100.3,124,100.3,124h0s3.4-4.5,29.9-18.2c11-5.6,17.1-12.1,20.6-17.9,21,.9,49.1,11.7,49.1,11.7Z"/></g><path class="b" d="M148.2,86.2c.2-13.6.3-27.3.5-40.9C170,47.8,200,57.4,200,57.4L187.8,72.1,200,97.9C200,98,169.4,86.2,148.2,86.2Z"/><path class="c" d="M148.6,47.1c-.2,13-.3,26-.5,38.9,7.9-5.1,15.8-9.8,23.7-13.9C164.1,64.4,156.3,55.9,148.6,47.1Z"/><path class="b" d="M51.8,86.2c-.2-13.6-.3-27.3-.5-40.9C30,47.8,0,57.4,0,57.4L12.2,72.1,0,98S30.6,86.2,51.8,86.2Z"/><path class="c" d="M51.4,47.1c.2,13,.3,26,.5,38.9C44,81.1,36.1,76.4,28.2,72.2,36,64.4,43.7,55.9,51.4,47.1Z"/><path class="d" d="M100.4,114c-4.3-3.1-12.4-8.2-27.3-15.8-21.8-11.1-21.9-25.9-21.9-27V6.1h98.4V71.2c0,1.1-.2,15.9-21.9,27C112.8,105.8,104.8,110.8,100.4,114Z"/><path class="d" d="M143.7,11.9V71.3c0,1.8-1.3,12.8-18.7,21.8A248.07,248.07,0,0,0,100.4,107,270.25,270.25,0,0,0,75.8,93.1C58.4,84.1,57.1,73,57.1,71.4V11.9h86.6M153.9,2H46.9V70.6s-1.1,18.6,24.4,31.7c25.9,13.2,29.1,17.7,29.1,17.7h0s3.3-4.4,29.1-17.7c25.5-13.1,24.4-31.7,24.4-31.7V2Z"/><path class="e" d="M150,5.7V71.2a21.28,21.28,0,0,1-2.2,8.6c-4.3,9.2-13.2,15.4-20,18.7-15.2,7.8-23.2,12.8-27.4,15.9-4.2-3.1-12.3-8.2-27.4-15.9C50.9,87.3,50.8,72.2,50.8,71.1V5.7H150M153.9,2H46.9V70.6s-1.1,18.6,24.4,31.7c25.9,13.2,29.1,17.7,29.1,17.7h0s3.3-4.4,29.1-17.7c25.5-13.1,24.4-31.7,24.4-31.7V2Z"/><path class="f" d="M151.6,4.1v67c0,.2.7,16.7-23,28.8-16.5,8.5-24.5,13.6-28.1,16.5-3.8-2.9-11.6-8-28.1-16.5-23.4-12-23-28.2-23-28.8V4.1H151.6M155.5.2H45.3V70.9S44.2,90,70.5,103.5c26.6,13.6,29.9,18.2,29.9,18.2h0s3.4-4.5,29.9-18.2c26.3-13.5,25.2-32.6,25.2-32.6V.2Z"/><g class="g"><path class="e" d="M155.5,70.9V.2H100.4V121.7h0s3.4-4.5,29.9-18.2C156.6,90,155.5,70.9,155.5,70.9Z"/></g><path class="h" d="M127.7,10.1h-9.5v2.4h9.5V10.1Zm-17.4,0h-9.5v2.4h9.5V10.1Zm-17.4,0H83.4v2.4h9.5V10.1Zm-17.4,0H66v2.4h9.5V10.1Zm-17.3,0H55.8v2.4h0v4.8h2.4V10.1Zm0,15.1H55.8v9.5h2.4V25.2Zm0,17.4H55.8v9.5h2.4V42.6Zm0,17.4H55.8v7.4h0c0,.1,0,.7.1,1.7h0v.3l2.4-.3a4.89,4.89,0,0,1-.1-1.6h0V60Zm2.1,16-2.1,1a25.53,25.53,0,0,0,2.4,4.1h0c.1.1.1.2.2.2h0v.1h0v.1h0l.1.1h0a.1.1,0,0,0,.1.1h0l.2.2h0a23.21,23.21,0,0,0,2.1,2.5L65,82.8A27.44,27.44,0,0,1,60.3,76ZM71,88l-1.3,1.9a43.26,43.26,0,0,0,6.4,3.8h0a12.9,12.9,0,0,1,1.6.9l1.1-2.1a12.9,12.9,0,0,1-1.6-.9A41.85,41.85,0,0,1,71,88Zm14.9,8.3-1.1,2c3,1.6,5.4,3.1,7.4,4.2h0c.2.2.4.2.5.3l1.3-2c-2.2-1.1-5-2.7-8.1-4.5Zm19.7,5.5c-4.7,3-6.3,4.5-6.9,5.2l-.1.1a8.43,8.43,0,0,1,1.7,1.6h0c.1-.1.5-.5,1.7-1.6h0c1-.8,2.5-1.8,4.8-3.3l-1.2-2ZM121,93.1q-4.65,2.4-8.4,4.5l1.2,2c2.2-1.3,4.8-2.7,7.7-4.2h.3l-.8-2.3Zm13.8-9.2a46.21,46.21,0,0,1-7.1,5.6l1.3,2c.3-.2.7-.4,1-.6h.2a50.89,50.89,0,0,0,5.9-4.8l-1.3-2.2Zm7.7-13.7a24.4,24.4,0,0,1-3.1,8l2,1.3c.6-1,1.1-2,1.6-2.9h0v-.1h0v-.1h0a23.66,23.66,0,0,0,1.6-5.3l-2.1-.9Zm2.6-17h-2.4v9.5h2.4V53.2Zm0-17.4h-2.4v9.5h2.4V35.8Zm0-17.4h-2.4v9.5h2.4V18.4Zm0-8.3h-9.5v2.4h9.5V10.1Z"/><g class="i"><path d="M155.5,33.4a313.83,313.83,0,0,0-110.2-.1V71.2a12.14,12.14,0,0,0,.2,2.3q55.05-2.7,109.9,0a18.38,18.38,0,0,0,.2-2.3C155.5,70.2,155.5,33.4,155.5,33.4Z"/></g><path class="j" d="M27.7,34.7c.2,12.5.3,25,.5,37.5a1111.36,1111.36,0,0,1,143.7,0c.2-12.5.3-25,.5-37.5A315.78,315.78,0,0,0,27.7,34.7Z"/><path class="e" d="M70.8,61.6c-.2.3-.4.5-.6.8a3.51,3.51,0,0,1-.9.7,3.34,3.34,0,0,1-1.2.5,3.18,3.18,0,0,1-1.4.2,6.37,6.37,0,0,1-2.4-.4,4.36,4.36,0,0,1-1.9-1.2,8.32,8.32,0,0,1-1.3-1.8,6,6,0,0,1-.5-2.4,6.37,6.37,0,0,1,.4-2.4,4.36,4.36,0,0,1,1.2-1.9A8.32,8.32,0,0,1,64,52.4a5.93,5.93,0,0,1,2.3-.5,4.87,4.87,0,0,1,1.2.1c.4.1.8.2,1.1.3a7.26,7.26,0,0,1,.9.5,4.62,4.62,0,0,1,.7.7c-.4.3-.5.4-.9.7l-.5-.5c-.2-.2-.5-.3-.7-.5s-.5-.2-.9-.3a3.4,3.4,0,0,0-1-.1,4.55,4.55,0,0,0-2,.5,4.86,4.86,0,0,0-1.4,1.1,4.17,4.17,0,0,0-.9,1.6,4,4,0,0,0-.2,1.9,8,8,0,0,0,.4,1.8,4.62,4.62,0,0,0,.9,1.5,4,4,0,0,0,1.5,1,4.23,4.23,0,0,0,2,.3,3.74,3.74,0,0,0,1.8-.5,4.27,4.27,0,0,0,1.4-1.3A5.29,5.29,0,0,0,70.8,61.6Z"/><path class="e" d="M83.5,57.6a9.27,9.27,0,0,1-.4,2.4,7.61,7.61,0,0,1-1.2,1.9,5.6,5.6,0,0,1-4.1,1.8,5.56,5.56,0,0,1-2.3-.4,7.61,7.61,0,0,1-1.9-1.2,8.32,8.32,0,0,1-1.3-1.8,4.84,4.84,0,0,1-.3-2.4,6.72,6.72,0,0,1,.4-2.4,6.15,6.15,0,0,1,1.2-1.9,8.32,8.32,0,0,1,1.8-1.3,5.21,5.21,0,0,1,2.3-.5,9.27,9.27,0,0,1,2.4.4A7.61,7.61,0,0,1,82,53.4a8.32,8.32,0,0,1,1.3,1.8A19.42,19.42,0,0,1,83.5,57.6Zm-1.1,0a12.5,12.5,0,0,0-.3-1.9,4.62,4.62,0,0,0-.9-1.5,3.07,3.07,0,0,0-1.5-1,5.92,5.92,0,0,0-2-.4,7.11,7.11,0,0,0-2,.4,3.6,3.6,0,0,0-1.4,1.1,4.17,4.17,0,0,0-.9,1.6,5.82,5.82,0,0,0-.3,1.9,5.26,5.26,0,0,0,.4,1.8,4.62,4.62,0,0,0,.9,1.5,4,4,0,0,0,1.5,1,5.92,5.92,0,0,0,2,.4,5.85,5.85,0,0,0,1.9-.4A3.6,3.6,0,0,0,81.2,61a4.17,4.17,0,0,0,.9-1.6A4.5,4.5,0,0,0,82.4,57.6Z"/><path class="e" d="M91.5,61.2h0c1.5-3.7,2.2-5.5,3.7-9.2h1.7V63.1H95.8V53.5h0c-1.6,3.8-2.4,5.8-4,9.6h-.6c-1.6-3.8-2.4-5.8-4.1-9.6h0c0,3.8.1,5.8.1,9.6H86.1c-.1-4.4-.1-6.6-.2-11h1.7C89.2,55.7,90,57.6,91.5,61.2Z"/><path class="e" d="M99.9,52H103a8.75,8.75,0,0,1,1.6.2,7.25,7.25,0,0,1,1.2.5,3.63,3.63,0,0,1,.8.9,3.51,3.51,0,0,1-.1,2.6,2.36,2.36,0,0,1-.8.9,3.34,3.34,0,0,1-1.2.5,4.14,4.14,0,0,1-1.6.2h-2V63H99.8C99.8,58.7,99.8,56.5,99.9,52Zm1.1,5h2a3.44,3.44,0,0,0,2-.5,1.68,1.68,0,0,0,.7-1.5,1.58,1.58,0,0,0-.7-1.5,3.94,3.94,0,0,0-2-.5h-2Z"/><path class="e" d="M108,63.1h-1.3c2-4.5,2.9-6.7,4.9-11.1h1.1c1.9,4.5,2.8,6.7,4.6,11.1H116l-1.2-2.9c-2.3,0-3.4-.1-5.7-.1A26.54,26.54,0,0,1,108,63.1Zm1.6-3.9c2,0,3,0,4.9.1-.9-2.4-1.4-3.5-2.4-6C111.1,55.7,110.6,56.8,109.6,59.2Z"/><path class="e" d="M126.9,61.7h0c.1-3.8.2-5.6.2-9.5h1.2c-.1,4.5-.2,6.7-.2,11.1h-1.4l-6.3-9.6h0c-.1,3.8-.1,5.7-.2,9.6h-1.1c.1-4.5.1-6.7.2-11.1h1.4C123.1,56,124.4,57.9,126.9,61.7Z"/><path class="e" d="M134.8,63.6h-1.1c.1-1.9.1-2.9.2-4.8-1.6-2.6-2.4-3.8-4-6.4h1.4c1.3,2.2,2,3.3,3.2,5.5,1.4-2.1,2.1-3.1,3.5-5.3a5.7,5.7,0,0,1,1.3.1c-1.7,2.5-2.7,3.7-4.4,6.2C134.9,60.7,134.9,61.7,134.8,63.6Z"/><path class="e" d="M66.9,38c.1,4.4.2,6.6.3,11-1.3,0-2,.1-3.2.1-.2-4.3-.2-6.5-.3-10.8-1.5.2-2.3.2-3.8.4,0-1.1-.1-1.6-.1-2.7,4.4-.5,6.5-.8,10.9-1.2,0,1.2.1,1.7.1,2.9A26.62,26.62,0,0,1,66.9,38Z"/><path class="e" d="M79.6,48.8c-1.2-2.3-1.8-3.4-3.1-5.6a3.75,3.75,0,0,0-1.1.1c.1,2.3.1,3.4.1,5.7-1.3,0-1.9.1-3.1.1-.2-5.6-.2-8.5-.3-14.2,2-.2,3.1-.2,5.2-.4a6.08,6.08,0,0,1,1.9.1,3.82,3.82,0,0,1,1.6.6A3.74,3.74,0,0,1,82,36.5a4.34,4.34,0,0,1,.5,2.1,3.9,3.9,0,0,1-.7,2.5,4.26,4.26,0,0,1-2,1.5c1.5,2.4,2.2,3.7,3.6,6.2C81.9,48.7,81.2,48.8,79.6,48.8Zm-.3-10.1a2.92,2.92,0,0,0-.2-.9c-.2-.2-.3-.4-.5-.5a1.85,1.85,0,0,0-.7-.2h-.8a9.7,9.7,0,0,1-1.7.1c0,1.3.1,2,.1,3.4.6,0,.9-.1,1.6-.1.2,0,.5-.1.9-.1s.5-.2.8-.3.4-.3.5-.5A2.64,2.64,0,0,0,79.3,38.7Z"/><path class="e" d="M94.1,48.6c-.4-1.2-.6-1.7-1.1-2.9-2.1,0-3.1,0-5.3.1-.4,1.2-.5,1.7-.9,2.9-1.4,0-2.1,0-3.5.1,2.2-6,3.3-8.9,5.5-15,1.3-.1,1.9-.1,3.2-.1,2.3,6,3.4,8.9,5.6,15C96.3,48.6,95.6,48.6,94.1,48.6Zm-3.7-11c-.7,2-1,3.1-1.6,5.2,1.3,0,2,0,3.4-.1C91.5,40.7,91.1,39.7,90.4,37.6Z"/><path class="e" d="M102.1,36.7v3.1c2.1,0,3.1,0,5.3.1v3c-2.1,0-3.1,0-5.3-.1v5.8H98.9v-15c3.6,0,5.4,0,8.9.1v3.1C105.6,36.7,104.4,36.7,102.1,36.7Z"/><path class="e" d="M113.2,36.9V40c2.1.1,3.1.1,5.3.2a28.1,28.1,0,0,1-.1,2.9c-2.1-.1-3.1-.1-5.3-.2,0,2.3-.1,3.4-.1,5.7h-3.2c.1-6,.1-8.9.2-14.9,3.6.1,5.4.2,8.9.4,0,1.2,0,1.8-.1,3C116.5,37,115.4,37,113.2,36.9Z"/><path class="e" d="M120.8,48.8c.1-5.8.2-8.7.2-14.5,1.3.1,2,.2,3.3.2-.1,5.7-.2,8.6-.3,14.3C122.7,48.9,122,48.8,120.8,48.8Z"/><path class="e" d="M136.4,48.9a7.49,7.49,0,0,1-3.1.5,7.17,7.17,0,0,1-2.9-.6,7.33,7.33,0,0,1-2.3-1.6,9.74,9.74,0,0,1-1.5-2.4,10.07,10.07,0,0,1-.5-3.1,7.45,7.45,0,0,1,.6-3.1,6,6,0,0,1,1.6-2.2,7,7,0,0,1,2.4-1.3,9.25,9.25,0,0,1,2.9-.2,9.85,9.85,0,0,1,2.8.8,7.6,7.6,0,0,1,2.2,1.7c-.9.8-1.3,1.2-2.3,2a2.34,2.34,0,0,0-1.2-1,8.8,8.8,0,0,0-1.5-.5,3,3,0,0,0-1.6.2,5.67,5.67,0,0,0-1.3.8,6,6,0,0,0-.9,1.3,4.67,4.67,0,0,0-.3,1.7,7.93,7.93,0,0,0,.2,1.7,3.92,3.92,0,0,0,.8,1.4,2.73,2.73,0,0,0,1.2.9,3.77,3.77,0,0,0,1.6.4A4.31,4.31,0,0,0,135,46a2.73,2.73,0,0,0,1.2-.9l2.2,2.2A3.61,3.61,0,0,1,136.4,48.9Z"/><path class="b" d="M27.7,34.7c.2,12.5.3,25,.5,37.5,13.2-.9,36.4-1.7,36.4-1.7L34,68.8l20.5-3.3L33.3,63.6l17.2-3.7L32.4,58.1l13.7-3.3-14-1.5,10.7-3.5L31.4,48.3,39,45.6l-7.6-1.9L40,41.3l-8.7-1.5,9.2-3.1-8.8-.3s2.8-1.8,16.8-6C41.5,31.6,34.6,33,27.7,34.7Z"/><path class="b" d="M172.3,34.7c-.2,12.5-.3,25-.5,37.5-10.1-.8-36.4-1.7-36.4-1.7L166,68.9l-20.5-3.3,21.2-1.9L149.5,60l18.1-1.8-13.7-3.3,14-1.5-10.7-3.5,11.4-1.5L161,45.7l7.5-1.9L160,41.3l8.7-1.5-9.2-3.1,8.8-.3s-2.8-1.8-16.8-6C158.5,31.6,165.4,33,172.3,34.7Z"/></svg>